<svg xmlns="http://www.w3.org/2000/svg" xmlns:xlink="http://www.w3.org/1999/xlink">


<symbol id="dribbble" fill-rule="evenodd" clip-rule="evenodd" stroke-linejoin="round" stroke-miterlimit="1.414"><path d="M8 16c-4.41 0-8-3.59-8-8s3.59-8 8-8 8 3.59 8 8-3.59 8-8 8zm6.747-6.905c-.234-.074-2.115-.635-4.257-.292.894 2.456 1.258 4.456 1.328 4.872 1.533-1.037 2.624-2.68 2.93-4.58zM10.67 14.3c-.102-.6-.5-2.688-1.46-5.18l-.044.014C5.312 10.477 3.93 13.15 3.806 13.4c1.158.905 2.614 1.444 4.194 1.444.947 0 1.85-.194 2.67-.543zm-7.747-1.72c.155-.266 2.03-3.37 5.555-4.51.09-.03.18-.056.27-.08-.173-.39-.36-.778-.555-1.16-3.413 1.02-6.723.977-7.023.97l-.003.208c0 1.755.665 3.358 1.756 4.57zM1.31 6.61c.307.005 3.122.017 6.318-.832-1.132-2.012-2.353-3.705-2.533-3.952-1.912.902-3.34 2.664-3.784 4.785zM6.4 1.368c.188.253 1.43 1.943 2.548 4 2.43-.91 3.46-2.293 3.582-2.468C11.323 1.827 9.736 1.176 8 1.176c-.55 0-1.087.066-1.6.19zm6.89 2.322c-.145.194-1.29 1.662-3.816 2.694.16.325.31.656.453.99.05.117.1.235.147.352 2.274-.286 4.533.172 4.758.22-.015-1.613-.59-3.094-1.543-4.257z"/></symbol>

<symbol id="facebook" fill-rule="evenodd" clip-rule="evenodd" stroke-linejoin="round" stroke-miterlimit="1.414"><path d="M15.117 0H.883C.395 0 0 .395 0 .883v14.234c0 .488.395.883.883.883h7.663V9.804H6.46V7.39h2.086V5.607c0-2.066 1.262-3.19 3.106-3.19.883 0 1.642.064 1.863.094v2.16h-1.28c-1 0-1.195.48-1.195 1.18v1.54h2.39l-.31 2.42h-2.08V16h4.077c.488 0 .883-.395.883-.883V.883C16 .395 15.605 0 15.117 0" fill-rule="nonzero"/></symbol>

<symbol id="flickr" fill-rule="evenodd" clip-rule="evenodd" stroke-linejoin="round" stroke-miterlimit="1.414"><path d="M0 8c0 2.05 1.662 3.71 3.71 3.71 2.05 0 3.713-1.66 3.713-3.71S5.76 4.29 3.71 4.29C1.663 4.29 0 5.95 0 8zm8.577 0c0 2.05 1.662 3.71 3.712 3.71C14.33 11.71 16 10.05 16 8s-1.662-3.71-3.71-3.71c-2.05 0-3.713 1.66-3.713 3.71z"/></symbol>

<symbol id="github" fill-rule="evenodd" clip-rule="evenodd" stroke-linejoin="round" stroke-miterlimit="1.414"><path d="M8 0C3.58 0 0 3.582 0 8c0 3.535 2.292 6.533 5.47 7.59.4.075.547-.172.547-.385 0-.19-.007-.693-.01-1.36-2.226.483-2.695-1.073-2.695-1.073-.364-.924-.89-1.17-.89-1.17-.725-.496.056-.486.056-.486.803.056 1.225.824 1.225.824.714 1.223 1.873.87 2.33.665.072-.517.278-.87.507-1.07-1.777-.2-3.644-.888-3.644-3.953 0-.873.31-1.587.823-2.147-.09-.202-.36-1.015.07-2.117 0 0 .67-.215 2.2.82.64-.178 1.32-.266 2-.27.68.004 1.36.092 2 .27 1.52-1.035 2.19-.82 2.19-.82.43 1.102.16 1.915.08 2.117.51.56.82 1.274.82 2.147 0 3.073-1.87 3.75-3.65 3.947.28.24.54.73.54 1.48 0 1.07-.01 1.93-.01 2.19 0 .21.14.46.55.38C13.71 14.53 16 11.53 16 8c0-4.418-3.582-8-8-8"/></symbol>

<symbol id="googleplus" fill-rule="evenodd" clip-rule="evenodd" stroke-linejoin="round" stroke-miterlimit="1.414"><path d="M5.09 7.273v1.745h2.89c-.116.75-.873 2.197-2.887 2.197-1.737 0-3.155-1.44-3.155-3.215S3.353 4.785 5.09 4.785c.99 0 1.652.422 2.03.786l1.382-1.33c-.887-.83-2.037-1.33-3.41-1.33C2.275 2.91 0 5.19 0 8s2.276 5.09 5.09 5.09c2.94 0 4.888-2.065 4.888-4.974 0-.334-.036-.59-.08-.843H5.09zm10.91 0h-1.455V5.818H13.09v1.455h-1.454v1.454h1.455v1.455h1.46V8.727H16"/></symbol>

<symbol id="instagram" fill-rule="evenodd" clip-rule="evenodd" stroke-linejoin="round" stroke-miterlimit="1.414"><path d="M8 0C5.827 0 5.555.01 4.702.048 3.85.088 3.27.222 2.76.42c-.526.204-.973.478-1.417.923-.445.444-.72.89-.923 1.417-.198.51-.333 1.09-.372 1.942C.008 5.555 0 5.827 0 8s.01 2.445.048 3.298c.04.852.174 1.433.372 1.942.204.526.478.973.923 1.417.444.445.89.72 1.417.923.51.198 1.09.333 1.942.372.853.04 1.125.048 3.298.048s2.445-.01 3.298-.048c.852-.04 1.433-.174 1.942-.372.526-.204.973-.478 1.417-.923.445-.444.72-.89.923-1.417.198-.51.333-1.09.372-1.942.04-.853.048-1.125.048-3.298s-.01-2.445-.048-3.298c-.04-.852-.174-1.433-.372-1.942-.204-.526-.478-.973-.923-1.417-.444-.445-.89-.72-1.417-.923-.51-.198-1.09-.333-1.942-.372C10.445.008 10.173 0 8 0zm0 1.44c2.136 0 2.39.01 3.233.048.78.036 1.203.166 1.485.276.374.145.64.318.92.598.28.28.453.546.598.92.11.282.24.705.276 1.485.038.844.047 1.097.047 3.233s-.01 2.39-.05 3.233c-.04.78-.17 1.203-.28 1.485-.15.374-.32.64-.6.92-.28.28-.55.453-.92.598-.28.11-.71.24-1.49.276-.85.038-1.1.047-3.24.047s-2.39-.01-3.24-.05c-.78-.04-1.21-.17-1.49-.28-.38-.15-.64-.32-.92-.6-.28-.28-.46-.55-.6-.92-.11-.28-.24-.71-.28-1.49-.03-.84-.04-1.1-.04-3.23s.01-2.39.04-3.24c.04-.78.17-1.21.28-1.49.14-.38.32-.64.6-.92.28-.28.54-.46.92-.6.28-.11.7-.24 1.48-.28.85-.03 1.1-.04 3.24-.04zm0 2.452c-2.27 0-4.108 1.84-4.108 4.108 0 2.27 1.84 4.108 4.108 4.108 2.27 0 4.108-1.84 4.108-4.108 0-2.27-1.84-4.108-4.108-4.108zm0 6.775c-1.473 0-2.667-1.194-2.667-2.667 0-1.473 1.194-2.667 2.667-2.667 1.473 0 2.667 1.194 2.667 2.667 0 1.473-1.194 2.667-2.667 2.667zm5.23-6.937c0 .53-.43.96-.96.96s-.96-.43-.96-.96.43-.96.96-.96.96.43.96.96z"/></symbol>

<symbol id="linkedin" fill-rule="evenodd" clip-rule="evenodd" stroke-linejoin="round" stroke-miterlimit="1.414"><path d="M13.632 13.635h-2.37V9.922c0-.886-.018-2.025-1.234-2.025-1.235 0-1.424.964-1.424 1.96v3.778h-2.37V6H8.51v1.04h.03c.318-.6 1.092-1.233 2.247-1.233 2.4 0 2.845 1.58 2.845 3.637v4.188zM3.558 4.955c-.762 0-1.376-.617-1.376-1.377 0-.758.614-1.375 1.376-1.375.76 0 1.376.617 1.376 1.375 0 .76-.617 1.377-1.376 1.377zm1.188 8.68H2.37V6h2.376v7.635zM14.816 0H1.18C.528 0 0 .516 0 1.153v13.694C0 15.484.528 16 1.18 16h13.635c.652 0 1.185-.516 1.185-1.153V1.153C16 .516 15.467 0 14.815 0z" fill-rule="nonzero"/></symbol>

<symbol id="pinterest" fill-rule="evenodd" clip-rule="evenodd" stroke-linejoin="round" stroke-miterlimit="1.414"><path d="M8 0C3.582 0 0 3.582 0 8c0 3.39 2.108 6.285 5.084 7.45-.07-.633-.133-1.604.028-2.295.146-.625.938-3.977.938-3.977s-.24-.48-.24-1.188c0-1.11.646-1.943 1.448-1.943.683 0 1.012.513 1.012 1.127 0 .687-.436 1.713-.662 2.664-.19.797.4 1.445 1.185 1.445 1.42 0 2.514-1.498 2.514-3.662 0-1.91-1.376-3.25-3.342-3.25-2.276 0-3.61 1.71-3.61 3.47 0 .69.263 1.43.593 1.83.066.08.075.15.057.23-.06.25-.196.8-.223.91-.035.15-.115.18-.268.11C3.516 10.46 2.89 9 2.89 7.82c0-2.52 1.834-4.84 5.287-4.84 2.774 0 4.932 1.98 4.932 4.62 0 2.76-1.74 4.98-4.16 4.98-.81 0-1.57-.42-1.84-.92l-.5 1.9c-.18.698-.67 1.57-1 2.1.75.23 1.54.357 2.37.357 4.41 0 8-3.58 8-8s-3.59-8-8-8z" fill-rule="nonzero"/></symbol>

<symbol id="rss" fill-rule="evenodd" clip-rule="evenodd" stroke-linejoin="round" stroke-miterlimit="1.414"><path d="M12.8 16C12.8 8.978 7.022 3.2 0 3.2V0c8.777 0 16 7.223 16 16h-3.2zM2.194 11.61c1.21 0 2.195.985 2.195 2.196 0 1.21-.99 2.194-2.2 2.194C.98 16 0 15.017 0 13.806c0-1.21.983-2.195 2.194-2.195zM10.606 16h-3.11c0-4.113-3.383-7.497-7.496-7.497v-3.11c5.818 0 10.606 4.79 10.606 10.607z"/></symbol>

<symbol id="stackoverflow" class="svg-icon" xmlns="http://www.w3.org/2000/svg" fill-rule="evenodd" clip-rule="evenodd" stroke-linejoin="round" stroke-miterlimit="1.414"><path d="M12.658 14.577v-4.27h1.423V16H1.23v-5.693h1.42v4.27h10.006zm-8.583-1.423h7.16V11.73h-7.16v1.424zm.173-3.235l6.987 1.46.3-1.38L4.55 8.54l-.302 1.38zm.906-3.37l6.47 3.02.602-1.3-6.47-3.02-.602 1.29zm1.81-3.19l5.478 4.57.906-1.08L7.87 2.28l-.9 1.078zM10.502 0L9.338.863l4.27 5.735 1.164-.862L10.5 0z"/></symbol>

<symbol id="twitter" fill-rule="evenodd" clip-rule="evenodd" stroke-linejoin="round" stroke-miterlimit="1.414"><path d="M16 3.038c-.59.26-1.22.437-1.885.517.677-.407 1.198-1.05 1.443-1.816-.634.37-1.337.64-2.085.79-.598-.64-1.45-1.04-2.396-1.04-1.812 0-3.282 1.47-3.282 3.28 0 .26.03.51.085.75-2.728-.13-5.147-1.44-6.766-3.42C.83 2.58.67 3.14.67 3.75c0 1.14.58 2.143 1.46 2.732-.538-.017-1.045-.165-1.487-.41v.04c0 1.59 1.13 2.918 2.633 3.22-.276.074-.566.114-.865.114-.21 0-.41-.02-.61-.058.42 1.304 1.63 2.253 3.07 2.28-1.12.88-2.54 1.404-4.07 1.404-.26 0-.52-.015-.78-.045 1.46.93 3.18 1.474 5.04 1.474 6.04 0 9.34-5 9.34-9.33 0-.14 0-.28-.01-.42.64-.46 1.2-1.04 1.64-1.7z" fill-rule="nonzero"/></symbol>

<symbol id="twitter2" fill-rule="evenodd" clip-rule="evenodd" stroke-linejoin="round" stroke-miterlimit="1.414"><path d="M 12.6 0.007 L 15.054 0.007 L 9.694 6.779 L 16 15.993 L 11.063 15.993 L 7.196 10.403 L 2.771 15.993 L 0.316 15.993 L 6.049 8.749 L 0 0.007 L 5.063 0.007 L 8.558 5.114 L 12.601 0.007 L 12.6 0.007 Z M 11.74 14.371 L 13.1 14.371 L 4.323 1.545 L 2.865 1.545 L 11.74 14.371 Z" style=""></path></symbol>

<symbol id="globe" fill-rule="evenodd" clip-rule="evenodd" stroke-linejoin="round" stroke-miterlimit="1.414"><path d="M0 8a8 8 0 1 1 16 0A8 8 0 0 1 0 8m7.5-6.923c-.67.204-1.335.82-1.887 1.855q-.215.403-.395.872c.705.157 1.472.257 2.282.287zM4.249 3.539q.214-.577.481-1.078a7 7 0 0 1 .597-.933A7 7 0 0 0 3.051 3.05q.544.277 1.198.49zM3.509 7.5c.036-1.07.188-2.087.436-3.008a9 9 0 0 1-1.565-.667A6.96 6.96 0 0 0 1.018 7.5zm1.4-2.741a12.3 12.3 0 0 0-.4 2.741H7.5V5.091c-.91-.03-1.783-.145-2.591-.332M8.5 5.09V7.5h2.99a12.3 12.3 0 0 0-.399-2.741c-.808.187-1.681.301-2.591.332zM4.51 8.5c.035.987.176 1.914.399 2.741A13.6 13.6 0 0 1 7.5 10.91V8.5zm3.99 0v2.409c.91.03 1.783.145 2.591.332.223-.827.364-1.754.4-2.741zm-3.282 3.696q.18.469.395.872c.552 1.035 1.218 1.65 1.887 1.855V11.91c-.81.03-1.577.13-2.282.287zm.11 2.276a7 7 0 0 1-.598-.933 9 9 0 0 1-.481-1.079 8.4 8.4 0 0 0-1.198.49 7 7 0 0 0 2.276 1.522zm-1.383-2.964A13.4 13.4 0 0 1 3.508 8.5h-2.49a6.96 6.96 0 0 0 1.362 3.675c.47-.258.995-.482 1.565-.667m6.728 2.964a7 7 0 0 0 2.275-1.521 8.4 8.4 0 0 0-1.197-.49 9 9 0 0 1-.481 1.078 7 7 0 0 1-.597.933M8.5 11.909v3.014c.67-.204 1.335-.82 1.887-1.855q.216-.403.395-.872A12.6 12.6 0 0 0 8.5 11.91zm3.555-.401c.57.185 1.095.409 1.565.667A6.96 6.96 0 0 0 14.982 8.5h-2.49a13.4 13.4 0 0 1-.437 3.008M14.982 7.5a6.96 6.96 0 0 0-1.362-3.675c-.47.258-.995.482-1.565.667.248.92.4 1.938.437 3.008zM11.27 2.461q.266.502.482 1.078a8.4 8.4 0 0 0 1.196-.49 7 7 0 0 0-2.275-1.52c.218.283.418.597.597.932m-.488 1.343a8 8 0 0 0-.395-.872C9.835 1.897 9.17 1.282 8.5 1.077V4.09c.81-.03 1.577-.13 2.282-.287z"/></symbol>


<symbol id="youtube" fill-rule="evenodd" clip-rule="evenodd" stroke-linejoin="round" stroke-miterlimit="1.414"><path d="M0 7.345c0-1.294.16-2.59.16-2.59s.156-1.1.636-1.587c.608-.637 1.408-.617 1.764-.684C3.84 2.36 8 2.324 8 2.324s3.362.004 5.6.166c.314.038.996.04 1.604.678.48.486.636 1.588.636 1.588S16 6.05 16 7.346v1.258c0 1.296-.16 2.59-.16 2.59s-.156 1.102-.636 1.588c-.608.638-1.29.64-1.604.678-2.238.162-5.6.166-5.6.166s-4.16-.037-5.44-.16c-.356-.067-1.156-.047-1.764-.684-.48-.487-.636-1.587-.636-1.587S0 9.9 0 8.605v-1.26zm6.348 2.73V5.58l4.323 2.255-4.32 2.24z"/></symbol>

<symbol id="mastodon" fill-rule="evenodd" clip-rule="evenodd" stroke-linejoin="round" stroke-miterlimit="1.414">
  <path transform="scale(0.07)" d="M211.80734 139.0875c-3.18125 16.36625-28.4925 34.2775-57.5625 37.74875-15.15875 1.80875-30.08375 3.47125-45.99875 2.74125-26.0275-1.1925-46.565-6.2125-46.565-6.2125 0 2.53375.15625 4.94625.46875 7.2025 3.38375 25.68625 25.47 27.225 46.39125 27.9425 21.11625.7225 39.91875-5.20625 39.91875-5.20625l.8675 19.09s-14.77 7.93125-41.08125 9.39c-14.50875.7975-32.52375-.365-53.50625-5.91875C9.23234 213.82 1.40609 165.31125.20859 116.09125c-.365-14.61375-.14-28.39375-.14-39.91875 0-50.33 32.97625-65.0825 32.97625-65.0825C49.67234 3.45375 78.20359.2425 107.86484 0h.72875c29.66125.2425 58.21125 3.45375 74.8375 11.09 0 0 32.975 14.7525 32.975 65.0825 0 0 .41375 37.13375-4.59875 62.915"/>
  <path transform="scale(0.07)" fill="#FFF" d="M177.50984 80.077v60.94125h-24.14375v-59.15c0-12.46875-5.24625-18.7975-15.74-18.7975-11.6025 0-17.4175 7.5075-17.4175 22.3525v32.37625H96.20734V85.42325c0-14.845-5.81625-22.3525-17.41875-22.3525-10.49375 0-15.74 6.32875-15.74 18.7975v59.15H38.90484V80.077c0-12.455 3.17125-22.3525 9.54125-29.675 6.56875-7.3225 15.17125-11.07625 25.85-11.07625 12.355 0 21.71125 4.74875 27.8975 14.2475l6.01375 10.08125 6.015-10.08125c6.185-9.49875 15.54125-14.2475 27.8975-14.2475 10.6775 0 19.28 3.75375 25.85 11.07625 6.36875 7.3225 9.54 17.22 9.54 29.675"/>
</symbol>

<symbol id="logo2" fill-rule="evenodd" clip-rule="evenodd" stroke-linejoin="round" stroke-miterlimit="1.414">
  <g transform="matrix(1.22555, 0, 0, 1.22555, -14.446144, -50.372952)" style="">
    <path d="M 31.985 46.067 C 31.985 46.113 31.817 46.432 31.604 46.783 C 31.399 47.132 31.224 47.452 31.224 47.497 C 31.224 47.543 31.194 47.581 31.163 47.581 C 31.133 47.581 31.064 47.673 31.019 47.787 C 30.927 47.992 30.768 48.266 30.691 48.342 C 30.669 48.365 30.57 48.547 30.463 48.76 C 30.357 48.965 30.25 49.148 30.22 49.163 C 30.182 49.179 30.159 49.232 30.159 49.285 C 30.159 49.338 30.091 49.46 30.007 49.559 C 29.923 49.658 29.855 49.779 29.855 49.84 C 29.855 49.893 29.824 49.939 29.779 49.939 C 29.741 49.939 29.687 50.023 29.657 50.13 C 29.634 50.236 29.581 50.32 29.55 50.32 C 29.512 50.32 29.467 50.418 29.436 50.548 C 29.406 50.669 29.36 50.776 29.33 50.776 C 29.307 50.776 29.193 50.936 29.094 51.134 C 28.987 51.331 28.858 51.544 28.813 51.597 C 28.759 51.651 28.714 51.75 28.714 51.811 C 28.714 51.871 28.683 51.917 28.638 51.917 C 28.6 51.917 28.562 51.955 28.562 52.001 C 28.562 52.046 28.394 52.366 28.181 52.716 C 27.976 53.066 27.801 53.385 27.801 53.431 C 27.801 53.477 27.771 53.515 27.74 53.515 C 27.71 53.515 27.641 53.606 27.596 53.72 C 27.504 53.925 27.344 54.199 27.268 54.275 C 27.245 54.298 27.147 54.481 27.04 54.693 C 26.934 54.899 26.805 55.12 26.759 55.173 C 26.706 55.226 26.66 55.325 26.66 55.386 C 26.66 55.447 26.629 55.492 26.591 55.492 C 26.553 55.492 26.492 55.568 26.462 55.659 C 26.439 55.751 26.363 55.873 26.31 55.934 C 26.249 55.987 26.203 56.086 26.203 56.146 C 26.203 56.207 26.173 56.253 26.135 56.253 C 26.097 56.253 26.044 56.352 26.013 56.481 C 25.983 56.603 25.937 56.709 25.907 56.709 C 25.884 56.709 25.77 56.869 25.671 57.067 C 25.564 57.264 25.435 57.478 25.39 57.531 C 25.336 57.584 25.291 57.683 25.291 57.744 C 25.291 57.805 25.26 57.85 25.215 57.85 C 25.177 57.85 25.139 57.888 25.139 57.934 C 25.139 57.98 24.971 58.299 24.758 58.649 C 24.553 58.999 24.378 59.319 24.378 59.364 C 24.378 59.41 24.348 59.448 24.317 59.448 C 24.287 59.448 24.218 59.539 24.172 59.653 C 24.073 59.881 23.914 60.148 23.838 60.209 C 23.807 60.231 23.769 60.323 23.739 60.414 C 23.708 60.513 23.655 60.589 23.617 60.589 C 23.579 60.589 23.534 60.688 23.503 60.817 C 23.473 60.939 23.427 61.045 23.397 61.045 C 23.374 61.045 23.26 61.205 23.161 61.403 C 23.054 61.601 22.925 61.814 22.879 61.867 C 22.826 61.92 22.78 62.019 22.78 62.08 C 22.78 62.141 22.75 62.186 22.712 62.186 C 22.674 62.186 22.621 62.277 22.59 62.392 C 22.567 62.506 22.514 62.62 22.484 62.643 C 22.392 62.704 21.868 63.609 21.868 63.7 C 21.868 63.746 21.837 63.784 21.807 63.784 C 21.776 63.784 21.708 63.875 21.655 63.989 C 21.609 64.111 21.457 64.37 21.335 64.582 C 21.206 64.788 21.061 65.054 21.008 65.168 C 20.962 65.29 20.894 65.381 20.863 65.381 C 20.833 65.381 20.803 65.427 20.803 65.48 C 20.803 65.541 20.734 65.663 20.65 65.762 C 20.567 65.861 20.498 65.982 20.498 66.043 C 20.498 66.096 20.468 66.142 20.422 66.142 C 20.384 66.142 20.331 66.225 20.301 66.332 C 20.278 66.438 20.225 66.522 20.194 66.522 C 20.156 66.522 20.11 66.629 20.08 66.751 C 20.05 66.88 20.004 66.979 19.973 66.979 C 19.951 66.979 19.836 67.138 19.738 67.336 C 19.631 67.534 19.502 67.747 19.449 67.8 C 19.403 67.853 19.357 67.952 19.357 68.013 C 19.357 68.074 19.327 68.12 19.281 68.12 C 19.243 68.12 19.205 68.158 19.205 68.203 C 19.205 68.249 19.038 68.568 18.825 68.918 C 18.619 69.268 18.445 69.588 18.445 69.633 C 18.445 69.679 18.414 69.717 18.384 69.717 C 18.353 69.717 18.285 69.808 18.231 69.923 C 18.186 70.044 18.041 70.303 17.912 70.516 C 17.783 70.721 17.638 70.98 17.585 71.086 C 17.539 71.193 17.478 71.292 17.455 71.314 C 17.395 71.375 17.235 71.634 17.136 71.847 C 17.083 71.953 16.999 72.083 16.946 72.136 C 16.893 72.189 16.847 72.288 16.847 72.349 C 16.847 72.41 16.817 72.456 16.779 72.456 C 16.741 72.456 16.687 72.555 16.657 72.684 C 16.626 72.813 16.581 72.912 16.55 72.912 C 16.527 72.912 16.413 73.072 16.315 73.27 C 16.208 73.467 16.079 73.68 16.026 73.733 C 15.98 73.787 15.934 73.886 15.934 73.947 C 15.934 74.007 15.904 74.053 15.858 74.053 C 15.82 74.053 15.782 74.091 15.782 74.137 C 15.782 74.182 15.615 74.502 15.402 74.852 C 15.196 75.202 15.021 75.521 15.021 75.567 C 15.021 75.612 14.991 75.651 14.96 75.651 C 14.93 75.651 14.861 75.742 14.816 75.864 C 14.725 76.069 14.565 76.335 14.489 76.411 C 14.466 76.434 14.398 76.548 14.337 76.677 C 14.276 76.799 14.215 76.928 14.2 76.959 C 14.185 76.997 19.395 77.02 25.777 77.02 C 32.16 77.02 37.386 76.997 37.386 76.974 C 37.386 76.944 37.264 76.731 37.119 76.487 C 36.975 76.244 36.853 76.008 36.853 75.962 C 36.853 75.917 36.823 75.879 36.785 75.879 C 36.747 75.879 36.701 75.818 36.671 75.742 C 36.648 75.673 36.556 75.506 36.473 75.384 C 36.389 75.255 36.275 75.065 36.229 74.943 C 36.176 74.829 36.108 74.738 36.077 74.738 C 36.047 74.738 36.016 74.692 36.016 74.631 C 36.016 74.57 35.971 74.471 35.925 74.418 C 35.781 74.258 35.644 74.038 35.537 73.802 C 35.491 73.688 35.423 73.597 35.392 73.597 C 35.362 73.597 35.332 73.551 35.332 73.49 C 35.332 73.429 35.286 73.33 35.233 73.277 C 35.18 73.224 35.088 73.079 35.028 72.957 C 34.807 72.524 34.761 72.456 34.708 72.456 C 34.67 72.456 34.647 72.418 34.647 72.372 C 34.647 72.265 34.107 71.36 34.023 71.33 C 33.993 71.314 33.962 71.269 33.962 71.223 C 33.962 71.14 33.438 70.234 33.346 70.174 C 33.324 70.151 33.27 70.052 33.24 69.945 C 33.209 69.839 33.156 69.74 33.126 69.717 C 33.057 69.664 32.692 69.055 32.578 68.789 C 32.525 68.667 32.456 68.576 32.426 68.576 C 32.395 68.576 32.365 68.53 32.365 68.47 C 32.365 68.409 32.319 68.31 32.274 68.257 C 32.144 68.12 32.007 67.907 31.893 67.663 C 31.711 67.29 31.62 67.298 31.391 67.717 C 31.041 68.394 30.958 68.538 30.912 68.576 C 30.882 68.599 30.836 68.698 30.806 68.804 C 30.775 68.911 30.73 69.01 30.699 69.033 C 30.653 69.071 30.463 69.42 30.167 69.983 C 30.098 70.105 30.03 70.227 30.007 70.25 C 29.984 70.272 29.885 70.455 29.779 70.668 C 29.672 70.873 29.566 71.063 29.543 71.086 C 29.512 71.109 29.467 71.208 29.436 71.314 C 29.406 71.413 29.33 71.543 29.277 71.604 C 29.216 71.657 29.17 71.756 29.17 71.817 C 29.17 71.877 29.14 71.923 29.102 71.923 C 29.064 71.923 29.003 71.991 28.98 72.075 C 28.934 72.227 28.866 72.227 25.968 72.227 C 23.465 72.227 23.009 72.212 23.009 72.121 C 23.009 72.06 23.039 71.999 23.069 71.984 C 23.153 71.953 23.693 71.048 23.693 70.942 C 23.693 70.896 23.731 70.858 23.769 70.858 C 23.815 70.858 23.845 70.813 23.845 70.759 C 23.845 70.698 23.914 70.577 23.997 70.478 C 24.081 70.379 24.15 70.257 24.15 70.196 C 24.15 70.143 24.18 70.098 24.226 70.098 C 24.264 70.098 24.317 70.014 24.348 69.907 C 24.37 69.801 24.424 69.717 24.462 69.717 C 24.5 69.717 24.53 69.679 24.53 69.633 C 24.53 69.542 25.055 68.637 25.146 68.576 C 25.177 68.553 25.23 68.439 25.253 68.325 C 25.283 68.211 25.329 68.12 25.359 68.12 C 25.382 68.12 25.496 67.96 25.595 67.762 C 25.701 67.564 25.831 67.351 25.884 67.298 C 25.93 67.245 25.975 67.146 25.975 67.085 C 25.975 67.024 26.006 66.979 26.036 66.979 C 26.067 66.979 26.135 66.887 26.181 66.766 C 26.287 66.537 26.424 66.317 26.569 66.157 C 26.614 66.104 26.66 66.005 26.66 65.944 C 26.66 65.883 26.69 65.838 26.728 65.838 C 26.767 65.838 26.82 65.746 26.85 65.632 C 26.873 65.518 26.926 65.404 26.957 65.381 C 27.048 65.32 27.573 64.415 27.573 64.324 C 27.573 64.278 27.596 64.24 27.634 64.24 C 27.664 64.24 27.778 64.08 27.877 63.882 C 27.983 63.685 28.113 63.472 28.166 63.419 C 28.212 63.366 28.257 63.267 28.257 63.206 C 28.257 63.145 28.288 63.099 28.318 63.099 C 28.349 63.099 28.417 63.008 28.463 62.886 C 28.562 62.666 28.721 62.399 28.797 62.338 C 28.828 62.316 28.866 62.224 28.896 62.125 C 28.927 62.034 28.98 61.958 29.018 61.958 C 29.048 61.958 29.102 61.867 29.132 61.753 C 29.155 61.639 29.208 61.524 29.239 61.502 C 29.33 61.441 29.855 60.535 29.855 60.444 C 29.855 60.399 29.878 60.361 29.916 60.361 C 29.969 60.361 30.015 60.292 30.235 59.859 C 30.296 59.737 30.387 59.592 30.44 59.539 C 30.494 59.486 30.539 59.387 30.539 59.326 C 30.539 59.265 30.57 59.22 30.6 59.22 C 30.631 59.22 30.699 59.128 30.745 59.007 C 30.844 58.786 31.003 58.52 31.08 58.459 C 31.11 58.436 31.148 58.345 31.178 58.246 C 31.209 58.155 31.262 58.078 31.3 58.078 C 31.33 58.078 31.384 57.987 31.414 57.873 C 31.437 57.759 31.49 57.645 31.521 57.622 C 31.612 57.561 32.137 56.656 32.137 56.565 C 32.137 56.519 32.175 56.481 32.213 56.481 C 32.258 56.481 32.289 56.435 32.289 56.382 C 32.289 56.321 32.357 56.2 32.441 56.101 C 32.525 56.002 32.593 55.88 32.593 55.819 C 32.593 55.766 32.624 55.72 32.669 55.72 C 32.707 55.72 32.761 55.637 32.791 55.53 C 32.814 55.424 32.867 55.34 32.905 55.34 C 32.943 55.34 32.973 55.302 32.973 55.256 C 32.973 55.165 33.499 54.26 33.59 54.199 C 33.62 54.176 33.673 54.062 33.696 53.948 C 33.727 53.834 33.772 53.743 33.803 53.743 C 33.825 53.743 33.94 53.583 34.039 53.385 C 34.145 53.187 34.274 52.974 34.328 52.921 C 34.373 52.868 34.419 52.769 34.419 52.708 C 34.419 52.647 34.457 52.602 34.495 52.602 C 34.541 52.602 34.571 52.556 34.571 52.503 C 34.571 52.442 34.639 52.32 34.723 52.221 C 34.807 52.122 34.875 52.001 34.875 51.94 C 34.875 51.887 34.906 51.841 34.951 51.841 C 34.99 51.841 35.043 51.757 35.073 51.651 C 35.096 51.544 35.149 51.46 35.187 51.46 C 35.225 51.46 35.256 51.354 35.256 51.232 C 35.256 51.103 35.225 51.004 35.18 51.004 C 35.142 51.004 35.088 50.921 35.058 50.814 C 35.035 50.707 34.982 50.624 34.944 50.624 C 34.906 50.624 34.875 50.578 34.875 50.525 C 34.875 50.464 34.807 50.342 34.723 50.244 C 34.639 50.145 34.571 50.023 34.571 49.962 C 34.571 49.909 34.541 49.863 34.51 49.863 C 34.48 49.863 34.411 49.772 34.366 49.65 C 34.312 49.536 34.168 49.27 34.039 49.064 C 33.917 48.851 33.765 48.593 33.719 48.471 C 33.666 48.357 33.597 48.266 33.567 48.266 C 33.537 48.266 33.506 48.228 33.506 48.182 C 33.506 48.091 32.981 47.185 32.89 47.125 C 32.859 47.102 32.806 46.988 32.783 46.874 C 32.753 46.76 32.7 46.668 32.662 46.668 C 32.624 46.668 32.593 46.623 32.593 46.562 C 32.593 46.501 32.548 46.402 32.494 46.349 C 32.441 46.296 32.373 46.189 32.342 46.113 C 32.289 45.969 31.985 45.931 31.985 46.067 Z" style=""></path>
    <path d="M 38.306 57.059 C 38.222 57.158 38.146 57.264 38.146 57.295 C 38.146 57.318 37.926 57.668 37.652 58.071 C 37.378 58.474 37.157 58.847 37.157 58.892 C 37.157 58.938 37.104 58.991 37.043 59.022 C 36.982 59.045 36.929 59.113 36.929 59.182 C 36.929 59.243 36.899 59.296 36.853 59.296 C 36.815 59.296 36.762 59.379 36.731 59.478 C 36.709 59.585 36.64 59.684 36.579 59.706 C 36.518 59.729 36.473 59.798 36.473 59.866 C 36.473 59.927 36.442 59.98 36.404 59.98 C 36.366 59.98 36.305 60.057 36.275 60.148 C 36.252 60.239 36.199 60.345 36.161 60.391 C 35.842 60.771 35.788 60.855 35.788 60.939 C 35.788 60.992 35.765 61.045 35.735 61.061 C 35.651 61.099 35.332 61.563 35.332 61.646 C 35.332 61.684 35.309 61.73 35.278 61.745 C 35.187 61.783 34.875 62.247 34.875 62.338 C 34.875 62.376 34.845 62.415 34.799 62.415 C 34.761 62.415 34.723 62.468 34.723 62.529 C 34.723 62.59 34.761 62.643 34.799 62.643 C 34.845 62.643 34.875 62.681 34.875 62.726 C 34.875 62.818 35.4 63.723 35.491 63.784 C 35.522 63.806 35.575 63.921 35.598 64.035 C 35.628 64.149 35.682 64.24 35.72 64.24 C 35.758 64.24 35.788 64.286 35.788 64.347 C 35.788 64.408 35.834 64.506 35.887 64.56 C 36.024 64.719 36.161 64.94 36.267 65.168 C 36.313 65.29 36.381 65.381 36.412 65.381 C 36.442 65.381 36.473 65.419 36.473 65.465 C 36.473 65.556 36.998 66.461 37.089 66.522 C 37.119 66.545 37.172 66.659 37.195 66.773 C 37.226 66.887 37.279 66.979 37.317 66.979 C 37.355 66.979 37.386 67.024 37.386 67.085 C 37.386 67.146 37.431 67.245 37.485 67.298 C 37.621 67.458 37.758 67.678 37.865 67.907 C 37.91 68.028 37.979 68.12 38.009 68.12 C 38.04 68.12 38.07 68.158 38.07 68.203 C 38.07 68.295 38.595 69.2 38.686 69.261 C 38.717 69.284 38.77 69.398 38.793 69.512 C 38.823 69.626 38.876 69.717 38.907 69.717 C 38.945 69.717 38.998 69.793 39.029 69.885 C 39.059 69.983 39.097 70.075 39.128 70.098 C 39.204 70.158 39.363 70.424 39.462 70.645 C 39.508 70.767 39.576 70.858 39.607 70.858 C 39.637 70.858 39.667 70.896 39.667 70.942 C 39.667 71.033 40.193 71.938 40.284 71.999 C 40.314 72.022 40.367 72.136 40.39 72.25 C 40.421 72.364 40.474 72.456 40.504 72.456 C 40.535 72.456 40.58 72.517 40.611 72.585 C 40.634 72.661 40.725 72.821 40.809 72.95 C 40.892 73.072 41.006 73.27 41.052 73.384 C 41.105 73.505 41.174 73.597 41.204 73.597 C 41.235 73.597 41.265 73.635 41.265 73.68 C 41.265 73.771 41.79 74.677 41.881 74.738 C 41.912 74.76 41.965 74.875 41.988 74.989 C 42.018 75.103 42.071 75.194 42.109 75.194 C 42.147 75.194 42.178 75.224 42.178 75.262 C 42.178 75.3 42.3 75.513 42.444 75.734 C 42.589 75.962 42.71 76.183 42.71 76.236 C 42.71 76.289 42.748 76.335 42.786 76.335 C 42.832 76.335 42.862 76.381 42.862 76.442 C 42.862 76.503 42.908 76.601 42.961 76.655 C 43.014 76.708 43.083 76.814 43.113 76.883 C 43.159 77.012 43.395 77.02 46.666 77.02 L 50.173 77.02 L 49.998 76.693 C 49.899 76.518 49.8 76.358 49.77 76.35 C 49.731 76.335 49.709 76.274 49.709 76.221 C 49.709 76.16 49.663 76.069 49.617 76.016 C 49.564 75.962 49.435 75.749 49.328 75.551 C 49.23 75.354 49.115 75.194 49.093 75.194 C 49.062 75.194 49.017 75.095 48.986 74.966 C 48.956 74.844 48.902 74.738 48.864 74.738 C 48.826 74.738 48.796 74.692 48.796 74.631 C 48.796 74.57 48.75 74.471 48.704 74.418 C 48.651 74.365 48.522 74.152 48.416 73.954 C 48.317 73.756 48.203 73.597 48.18 73.597 C 48.149 73.597 48.104 73.498 48.073 73.368 C 48.043 73.247 47.989 73.14 47.951 73.14 C 47.913 73.14 47.868 73.056 47.837 72.95 C 47.814 72.843 47.761 72.76 47.723 72.76 C 47.685 72.76 47.655 72.722 47.655 72.669 C 47.655 72.623 47.609 72.524 47.548 72.463 C 47.495 72.395 47.351 72.166 47.236 71.961 C 47.122 71.748 46.894 71.352 46.734 71.071 C 46.575 70.797 46.438 70.531 46.438 70.485 C 46.438 70.44 46.407 70.402 46.362 70.402 C 46.323 70.402 46.285 70.356 46.285 70.295 C 46.285 70.234 46.24 70.136 46.194 70.082 C 46.141 70.029 46.012 69.816 45.905 69.618 C 45.806 69.42 45.692 69.261 45.67 69.261 C 45.639 69.261 45.593 69.162 45.563 69.033 C 45.532 68.911 45.479 68.804 45.441 68.804 C 45.403 68.804 45.373 68.759 45.373 68.698 C 45.373 68.637 45.327 68.538 45.281 68.485 C 45.145 68.34 45.008 68.112 44.909 67.891 C 44.871 67.793 44.81 67.686 44.779 67.663 C 44.749 67.64 44.68 67.542 44.635 67.435 C 44.582 67.329 44.437 67.07 44.308 66.865 C 44.179 66.652 44.034 66.393 43.988 66.271 C 43.935 66.157 43.866 66.066 43.836 66.066 C 43.806 66.066 43.775 66.028 43.775 65.982 C 43.775 65.891 43.251 64.986 43.159 64.925 C 43.129 64.902 43.075 64.788 43.053 64.674 C 43.022 64.56 42.969 64.468 42.931 64.468 C 42.893 64.468 42.862 64.423 42.862 64.362 C 42.862 64.301 42.817 64.202 42.771 64.149 C 42.718 64.096 42.589 63.882 42.482 63.685 C 42.383 63.487 42.269 63.327 42.246 63.327 C 42.216 63.327 42.17 63.221 42.14 63.099 C 42.109 62.97 42.056 62.871 42.018 62.871 C 41.98 62.871 41.95 62.825 41.95 62.764 C 41.95 62.704 41.904 62.605 41.858 62.552 C 41.729 62.415 41.592 62.201 41.478 61.958 C 41.425 61.852 41.364 61.753 41.341 61.73 C 41.318 61.707 41.257 61.608 41.212 61.502 C 41.159 61.395 41.014 61.137 40.885 60.931 C 40.756 60.718 40.611 60.459 40.565 60.338 C 40.512 60.224 40.443 60.133 40.413 60.133 C 40.383 60.133 40.352 60.095 40.352 60.049 C 40.352 59.958 39.827 59.052 39.736 58.991 C 39.705 58.968 39.652 58.854 39.629 58.74 C 39.599 58.626 39.546 58.535 39.508 58.535 C 39.47 58.535 39.439 58.489 39.439 58.429 C 39.439 58.368 39.394 58.269 39.348 58.215 C 39.295 58.162 39.166 57.949 39.059 57.752 C 38.96 57.554 38.846 57.394 38.823 57.394 C 38.793 57.394 38.747 57.295 38.717 57.173 C 38.656 56.877 38.504 56.831 38.306 57.059 Z" style=""></path>
  </g>
</symbol>

<symbol id="logo" fill-rule="evenodd" clip-rule="evenodd" stroke-linejoin="round" stroke-miterlimit="1.414">
  <g transform="matrix(1.07308, 0, 0, 0.961665, -1.827003, 0.958455)" style="">
    <path d="M 24.776 3.565 C 24.726 3.681 24.625 3.839 24.553 3.933 C 24.488 4.027 24.416 4.192 24.387 4.308 C 24.366 4.423 24.293 4.553 24.236 4.603 C 24.178 4.647 24.135 4.733 24.135 4.798 C 24.135 4.856 24.084 4.964 24.019 5.036 C 23.962 5.101 23.897 5.202 23.89 5.259 C 23.854 5.44 23.753 5.642 23.544 5.944 C 23.435 6.11 23.342 6.305 23.342 6.384 C 23.342 6.463 23.284 6.601 23.205 6.694 C 23.133 6.788 23.046 6.947 23.017 7.048 C 22.988 7.148 22.902 7.307 22.83 7.401 C 22.751 7.494 22.693 7.646 22.693 7.74 C 22.693 7.833 22.664 7.913 22.621 7.913 C 22.585 7.913 22.484 8.064 22.397 8.251 C 22.318 8.446 22.217 8.648 22.181 8.706 C 22.145 8.763 22.094 8.864 22.066 8.922 C 21.921 9.268 21.821 9.477 21.763 9.571 C 21.72 9.629 21.647 9.766 21.597 9.874 C 21.546 9.975 21.41 10.234 21.301 10.45 C 21.186 10.66 21.099 10.84 21.099 10.847 C 21.121 10.912 20.516 12.094 20.422 12.166 C 20.364 12.217 20.314 12.311 20.314 12.375 C 20.314 12.44 20.263 12.57 20.205 12.671 C 19.939 13.147 19.809 13.428 19.809 13.551 C 19.809 13.623 19.78 13.68 19.737 13.68 C 19.701 13.68 19.665 13.717 19.665 13.76 C 19.665 13.803 19.571 13.983 19.449 14.164 C 19.333 14.337 19.232 14.538 19.232 14.611 C 19.232 14.683 19.174 14.82 19.095 14.913 C 19.023 15.007 18.937 15.166 18.908 15.267 C 18.879 15.367 18.814 15.497 18.764 15.555 C 18.72 15.613 18.554 15.923 18.41 16.24 C 18.259 16.557 18.107 16.867 18.071 16.925 C 18.035 16.983 17.985 17.083 17.956 17.141 C 17.805 17.502 17.711 17.696 17.646 17.79 C 17.61 17.848 17.538 17.977 17.495 18.078 C 17.459 18.179 17.343 18.388 17.249 18.547 C 17.156 18.706 17.077 18.893 17.077 18.965 C 17.069 19.037 17.004 19.16 16.925 19.246 C 16.846 19.333 16.781 19.448 16.781 19.499 C 16.781 19.628 16.435 20.285 16.305 20.393 C 16.247 20.436 16.204 20.53 16.204 20.595 C 16.204 20.659 16.154 20.789 16.096 20.89 C 15.829 21.366 15.699 21.647 15.699 21.77 C 15.699 21.842 15.671 21.9 15.627 21.9 C 15.591 21.9 15.555 21.936 15.555 21.979 C 15.555 22.022 15.461 22.195 15.346 22.368 C 15.231 22.541 15.115 22.779 15.087 22.894 C 15.065 23.017 15 23.154 14.942 23.197 C 14.885 23.241 14.82 23.378 14.798 23.493 C 14.769 23.608 14.719 23.716 14.69 23.738 C 14.654 23.76 14.488 24.063 14.322 24.409 C 14.164 24.755 13.998 25.086 13.962 25.144 C 13.926 25.202 13.854 25.367 13.789 25.504 C 13.731 25.641 13.652 25.807 13.616 25.865 C 13.428 26.153 12.96 27.148 12.96 27.242 C 12.96 27.307 12.895 27.415 12.823 27.48 C 12.751 27.552 12.664 27.711 12.642 27.84 C 12.614 27.97 12.534 28.136 12.455 28.208 C 12.376 28.28 12.311 28.381 12.311 28.424 C 12.311 28.475 12.26 28.554 12.203 28.605 C 12.145 28.655 12.095 28.749 12.095 28.814 C 12.095 28.929 12.037 29.052 11.748 29.563 C 11.662 29.715 11.59 29.895 11.59 29.96 C 11.59 30.032 11.532 30.155 11.46 30.234 C 11.395 30.306 11.294 30.45 11.251 30.551 C 11.2 30.652 11.128 30.782 11.1 30.84 C 11.064 30.897 10.97 31.092 10.891 31.272 C 10.689 31.705 10.58 31.921 10.227 32.606 C 10.069 32.923 9.932 33.219 9.932 33.262 C 9.932 33.305 9.881 33.385 9.823 33.435 C 9.759 33.486 9.722 33.543 9.744 33.558 C 9.759 33.572 9.694 33.724 9.607 33.889 C 9.297 34.445 8.778 35.504 8.778 35.576 C 8.778 35.62 8.735 35.692 8.677 35.735 C 8.619 35.786 8.555 35.93 8.533 36.06 C 8.504 36.189 8.425 36.355 8.345 36.427 C 8.266 36.499 8.201 36.6 8.201 36.643 C 8.201 36.694 8.151 36.773 8.093 36.824 C 8.028 36.874 7.992 36.954 8.007 36.997 C 8.028 37.062 7.927 37.278 7.509 38.049 C 7.451 38.15 7.408 38.28 7.408 38.338 C 7.408 38.403 7.343 38.504 7.264 38.576 C 7.185 38.641 7.12 38.742 7.12 38.799 C 7.12 38.85 7.069 38.936 7.012 38.987 C 6.954 39.037 6.903 39.124 6.903 39.174 C 6.903 39.275 6.42 40.313 6.219 40.645 C 6.161 40.746 6.082 40.904 6.038 41.005 C 6.002 41.106 5.937 41.236 5.901 41.294 C 5.865 41.351 5.7 41.683 5.534 42.029 C 5.368 42.375 5.188 42.692 5.13 42.743 C 5.072 42.786 5.029 42.887 5.029 42.966 C 5.029 43.046 4.971 43.197 4.892 43.298 C 4.82 43.406 4.733 43.572 4.705 43.673 C 4.676 43.774 4.611 43.904 4.56 43.961 C 4.51 44.019 4.445 44.17 4.416 44.3 C 4.395 44.423 4.322 44.567 4.265 44.617 C 4.207 44.661 4.113 44.819 4.048 44.964 C 3.984 45.108 3.803 45.483 3.652 45.8 C 3.493 46.117 3.371 46.434 3.371 46.499 C 3.371 46.622 4.084 46.629 17.322 46.629 C 25.18 46.629 31.273 46.6 31.273 46.564 C 31.273 46.506 30.551 45.057 30.407 44.827 C 30.371 44.769 30.292 44.603 30.227 44.466 C 30.169 44.329 30.097 44.163 30.061 44.106 C 29.852 43.738 29.636 43.32 29.275 42.592 C 29.045 42.137 28.821 41.726 28.778 41.69 C 28.727 41.647 28.655 41.496 28.612 41.351 C 28.562 41.207 28.475 41.049 28.417 41.005 C 28.367 40.955 28.316 40.868 28.316 40.811 C 28.316 40.753 28.093 40.277 27.819 39.751 C 27.228 38.626 26.211 36.651 25.671 35.598 C 25.454 35.18 25.252 34.791 25.216 34.733 C 25.18 34.675 25.108 34.524 25.05 34.408 C 24.993 34.286 24.813 33.925 24.647 33.601 C 24.466 33.248 24.366 32.967 24.394 32.916 C 24.438 32.844 24.43 32.844 24.344 32.909 C 24.286 32.959 23.479 34.517 22.549 36.384 L 20.854 39.773 L 17.401 39.78 C 14.149 39.78 13.955 39.773 14.005 39.65 C 14.034 39.585 14.092 39.426 14.128 39.311 C 14.171 39.189 14.25 39.044 14.301 38.979 C 14.358 38.922 14.402 38.821 14.402 38.756 C 14.402 38.698 14.467 38.59 14.539 38.525 C 14.611 38.453 14.697 38.295 14.719 38.158 C 14.748 38.028 14.813 37.876 14.87 37.833 C 14.935 37.783 15.036 37.624 15.094 37.48 C 15.159 37.336 15.288 37.054 15.382 36.853 C 15.476 36.651 15.555 36.456 15.555 36.427 C 15.555 36.391 15.599 36.312 15.656 36.254 C 15.714 36.189 15.844 35.959 15.952 35.742 C 16.06 35.526 16.19 35.266 16.247 35.166 C 16.305 35.065 16.5 34.69 16.673 34.336 C 16.853 33.976 17.033 33.637 17.062 33.579 C 17.213 33.298 17.502 32.657 17.502 32.592 C 17.502 32.548 17.552 32.476 17.61 32.426 C 17.675 32.375 17.776 32.217 17.841 32.073 C 17.898 31.928 18.064 31.604 18.194 31.344 C 18.454 30.825 19.275 29.167 19.398 28.915 C 19.441 28.821 19.499 28.749 19.528 28.749 C 19.557 28.749 19.6 28.655 19.629 28.54 C 19.65 28.424 19.722 28.287 19.78 28.237 C 19.838 28.194 19.881 28.114 19.881 28.071 C 19.881 27.963 20.213 27.314 20.479 26.896 C 20.588 26.723 20.674 26.535 20.674 26.471 C 20.674 26.406 20.732 26.269 20.811 26.168 C 20.883 26.06 20.97 25.894 20.999 25.793 C 21.027 25.692 21.092 25.562 21.143 25.504 C 21.2 25.447 21.273 25.317 21.316 25.216 C 21.359 25.115 21.424 24.985 21.46 24.928 C 21.583 24.733 21.756 24.329 21.756 24.243 C 21.756 24.192 21.806 24.106 21.871 24.055 C 21.986 23.962 22.131 23.666 22.145 23.5 C 22.152 23.45 22.188 23.385 22.239 23.356 C 22.282 23.327 22.361 23.219 22.397 23.125 C 22.441 23.024 22.505 22.894 22.541 22.837 C 22.657 22.635 22.981 21.921 22.981 21.871 C 22.981 21.842 23.075 21.683 23.19 21.517 C 23.299 21.352 23.421 21.106 23.443 20.984 C 23.471 20.854 23.529 20.724 23.572 20.703 C 23.609 20.674 23.688 20.551 23.746 20.429 C 23.803 20.306 23.875 20.155 23.919 20.097 C 23.955 20.039 24.027 19.888 24.084 19.773 C 24.135 19.65 24.25 19.434 24.337 19.282 C 24.423 19.131 24.495 18.965 24.495 18.9 C 24.495 18.843 24.56 18.727 24.632 18.648 C 24.712 18.561 24.791 18.388 24.813 18.259 C 24.841 18.129 24.913 17.977 24.971 17.927 C 25.036 17.877 25.115 17.768 25.151 17.682 C 25.187 17.603 25.245 17.487 25.281 17.43 C 25.317 17.372 25.483 17.04 25.642 16.694 C 25.807 16.355 25.988 16.031 26.045 15.988 C 26.103 15.937 26.154 15.822 26.154 15.735 C 26.154 15.649 26.211 15.497 26.291 15.404 C 26.363 15.31 26.449 15.151 26.478 15.05 C 26.507 14.949 26.572 14.82 26.622 14.762 C 26.738 14.618 27.235 13.594 27.235 13.493 C 27.235 13.45 27.3 13.356 27.379 13.284 C 27.459 13.212 27.523 13.082 27.523 13.003 C 27.523 12.916 27.653 12.664 27.812 12.433 C 27.97 12.21 28.1 11.986 28.1 11.95 C 28.1 11.907 28.216 11.64 28.353 11.352 C 28.49 11.07 28.605 10.782 28.605 10.724 C 28.605 10.631 28.237 9.816 28.014 9.427 C 27.985 9.369 27.927 9.254 27.891 9.174 C 27.855 9.088 27.776 8.98 27.718 8.929 C 27.653 8.879 27.581 8.735 27.552 8.612 C 27.523 8.482 27.379 8.136 27.228 7.841 C 27.084 7.545 26.939 7.249 26.918 7.192 C 26.889 7.134 26.81 6.983 26.73 6.867 C 26.557 6.601 26.442 6.348 26.442 6.226 C 26.442 6.175 26.377 6.074 26.298 6.002 C 26.218 5.93 26.154 5.829 26.154 5.771 C 26.154 5.692 25.843 5.05 25.526 4.488 C 25.303 4.091 25.072 3.58 25.072 3.479 C 25.072 3.298 24.885 3.356 24.776 3.565 Z"></path>
    <path d="M 32.001 17.43 C 31.943 17.458 31.921 17.516 31.95 17.559 C 31.972 17.595 31.792 18.014 31.554 18.482 C 31.316 18.958 30.386 20.789 29.492 22.563 C 28.598 24.344 27.841 25.793 27.812 25.793 C 27.696 25.793 27.862 26.189 28.49 27.415 C 29.131 28.669 29.196 28.792 29.412 29.116 C 29.477 29.225 29.557 29.405 29.585 29.513 C 29.614 29.628 29.672 29.765 29.708 29.823 C 29.809 29.946 29.931 30.162 30.083 30.479 C 30.422 31.186 30.775 31.899 30.84 31.993 C 30.876 32.051 30.948 32.188 30.998 32.289 C 31.345 32.988 31.561 33.435 31.662 33.659 C 31.72 33.803 31.82 33.961 31.885 34.012 C 31.943 34.055 32.008 34.207 32.037 34.344 C 32.058 34.473 32.123 34.618 32.174 34.661 C 32.231 34.704 32.296 34.841 32.318 34.956 C 32.347 35.072 32.397 35.18 32.433 35.202 C 32.469 35.23 32.664 35.576 32.866 35.98 C 33.061 36.384 33.277 36.795 33.327 36.896 C 33.385 36.997 33.435 37.127 33.435 37.191 C 33.435 37.256 33.486 37.35 33.544 37.401 C 33.601 37.451 33.652 37.53 33.652 37.581 C 33.652 37.624 33.717 37.725 33.796 37.797 C 33.868 37.862 33.933 37.941 33.926 37.97 C 33.918 38.021 33.998 38.259 34.092 38.424 C 34.257 38.742 34.301 38.828 34.445 39.131 C 34.675 39.614 34.805 39.873 34.877 39.996 C 35.014 40.22 35.382 40.969 35.382 41.027 C 35.382 41.063 35.476 41.229 35.591 41.395 C 35.714 41.568 35.829 41.798 35.858 41.914 C 35.887 42.029 35.966 42.202 36.045 42.296 C 36.117 42.39 36.175 42.512 36.175 42.57 C 36.175 42.628 36.24 42.757 36.319 42.858 C 36.399 42.959 36.464 43.082 36.464 43.132 C 36.464 43.183 36.514 43.248 36.579 43.269 C 36.637 43.291 36.673 43.341 36.651 43.377 C 36.608 43.442 37.487 45.209 37.653 45.403 C 37.704 45.461 37.783 45.648 37.826 45.814 C 37.877 45.98 37.956 46.146 38.006 46.175 C 38.064 46.204 38.122 46.312 38.136 46.413 L 38.158 46.593 L 42.397 46.615 C 44.726 46.622 46.629 46.615 46.629 46.593 C 46.629 46.557 46.384 46.11 46.146 45.706 C 45.995 45.454 45.937 45.353 45.764 44.949 C 45.728 44.863 45.663 44.74 45.627 44.682 C 45.591 44.625 45.49 44.43 45.411 44.25 C 45.324 44.07 45.223 43.875 45.187 43.817 C 45.144 43.76 45.086 43.63 45.043 43.529 C 45.007 43.428 44.935 43.298 44.899 43.24 C 44.856 43.183 44.776 43.017 44.719 42.88 C 44.654 42.743 44.582 42.577 44.546 42.519 C 44.51 42.462 44.409 42.238 44.315 42.036 C 44.221 41.827 44.12 41.654 44.091 41.654 C 44.055 41.654 44.034 41.597 44.034 41.517 C 44.034 41.445 43.969 41.308 43.897 41.207 C 43.817 41.114 43.731 40.948 43.709 40.84 C 43.68 40.739 43.616 40.616 43.558 40.566 C 43.507 40.522 43.443 40.378 43.414 40.248 C 43.392 40.126 43.298 39.938 43.212 39.845 C 43.125 39.744 43.024 39.556 43.003 39.419 C 42.938 39.116 42.549 38.309 42.412 38.194 C 42.354 38.143 42.303 38.042 42.303 37.97 C 42.303 37.898 42.26 37.812 42.217 37.783 C 42.116 37.718 41.727 36.975 41.727 36.853 C 41.727 36.809 41.662 36.687 41.575 36.579 C 41.496 36.478 41.445 36.362 41.474 36.326 C 41.496 36.29 41.481 36.24 41.438 36.211 C 41.395 36.189 41.316 36.06 41.251 35.937 C 41.099 35.62 40.941 35.295 40.861 35.166 C 40.703 34.892 40.169 33.745 40.148 33.615 C 40.14 33.572 40.083 33.514 40.025 33.486 C 39.967 33.457 39.924 33.37 39.924 33.298 C 39.924 33.226 39.859 33.089 39.787 32.988 C 39.708 32.894 39.621 32.729 39.6 32.621 C 39.571 32.52 39.506 32.397 39.456 32.354 C 39.398 32.31 39.333 32.166 39.304 32.044 C 39.283 31.921 39.174 31.683 39.066 31.525 C 38.792 31.092 38.706 30.926 38.749 30.883 C 38.771 30.861 38.749 30.796 38.699 30.732 C 38.59 30.602 38.381 30.227 38.273 29.974 C 38.23 29.874 38.165 29.744 38.129 29.686 C 37.949 29.405 37.401 28.23 37.401 28.143 C 37.401 28.086 37.365 28.013 37.329 27.992 C 37.285 27.963 37.206 27.84 37.141 27.718 C 36.99 27.401 36.831 27.076 36.752 26.946 C 36.651 26.773 36.283 26.002 36.146 25.685 C 35.973 25.281 35.735 24.841 35.627 24.711 C 35.577 24.654 35.519 24.517 35.49 24.409 C 35.461 24.3 35.396 24.178 35.339 24.127 C 35.288 24.084 35.223 23.94 35.195 23.803 C 35.173 23.673 35.101 23.522 35.043 23.478 C 34.935 23.385 34.661 22.83 34.661 22.7 C 34.661 22.657 34.099 21.496 33.414 20.112 C 32.729 18.734 32.174 17.567 32.188 17.523 C 32.224 17.415 32.116 17.357 32.001 17.43 Z"></path>
  </g>
</symbol>

</svg>